<?xml version="1.0" encoding="utf-8"?>
<!-- Generator: Adobe Illustrator 24.2.3, SVG Export Plug-In . SVG Version: 6.00 Build 0)  -->
<svg version="1.1" id="Layer_1" xmlns="http://www.w3.org/2000/svg" xmlns:xlink="http://www.w3.org/1999/xlink" x="0px" y="0px"
	 viewBox="0 0 557.9 67.9" style="enable-background:new 0 0 557.9 67.9;" xml:space="preserve">
<style type="text/css">
	.st0{fill:#FFFFFF;}
</style>
<g>
	<path class="st0" d="M36.6,1.8c4.7,0,8.7,1.5,12.1,4.4c3.3,2.9,4.9,6.4,4.9,10.6c0,4-1.6,7.4-4.7,10.3c-3.1,2.8-6.9,4.4-11.5,4.7
		h3.4c4.7,0,8.7,1.7,12.2,5.1c3.4,3.3,5.1,7.3,5.1,12c0,4.7-1.7,8.7-5.1,11.9c-3.5,3.3-7.5,5-12.2,5H1.2V64c5.4,0.1,8-2.6,8-8V11.6
		c0-5.2-2.7-7.9-8-8V1.8H36.6z M20.4,31.2h9.1c3.9,0,7-1.3,9.2-3.9c2.3-2.6,3.4-5.9,3.4-9.8c0-3.9-1.1-7.1-3.4-9.8
		c-2.3-2.6-5.3-3.9-9.2-3.9h-9.1V31.2z M20.4,57c0,1.9,0.7,3.5,2.1,4.9c1.4,1.4,3.7,2.1,6.9,2.1c4.5,0,8.4-1.4,11.9-4.2
		c3.5-2.8,5.2-6.6,5.2-11.4c0-4.5-1.1-8.1-3.4-11.1c-2.3-2.9-5.3-4.4-9.2-4.4H20.4V57z"/>
	<path class="st0" d="M98.7,26.7c3.9,4.2,5.9,9.7,6.1,16.5c0,6.6-2.2,12.2-6.6,16.7c-4.4,4.6-9.6,6.9-15.7,6.9
		c-6.1,0-11.2-2.2-15.4-6.6c-4.2-4.4-6.2-9.8-6.2-16.2c0-6.6,2.1-12.2,6.3-16.7c4.2-4.6,9.6-6.9,16.2-6.9
		C89.7,20.4,94.9,22.5,98.7,26.7z M75.4,28.8c-2,4.2-3,9.2-3,15.1c0,5.8,1,10.7,3,14.7c2,4,4.5,5.9,7.4,5.9c3,0,5.6-2.1,7.6-6.2
		c2.1-4.1,3.2-9.2,3.2-15.2c0-6.2-0.9-11.2-2.7-15c-1.8-3.8-4.3-5.7-7.6-5.7C80.1,22.5,77.5,24.6,75.4,28.8z"/>
	<path class="st0" d="M148,24.3c2.6,2.6,3.9,6.3,3.9,11.2v19.4c0,6.2,2,9.3,6.1,9.4v1.5h-22.5v-1.5c4-0.1,6.1-3.2,6.1-9.4V34.1
		c0-2.7-0.8-5-2.4-6.9c-1.6-2-3.7-2.9-6.4-2.9c-2.4,0-4.4,1-6.1,2.9c-1.6,1.9-2.4,4.2-2.4,6.9v20.9c0,6.2,2.1,9.3,6.2,9.4v1.5h-23
		v-1.5c4.1-0.1,6.2-3.2,6.2-9.4V31c0-5-2.1-7.2-6.2-6.5V23l15.5-2.5c0.8,0.8,1.2,2.7,1.4,5.9c3.4-4,7.7-5.9,13-5.9
		C141.8,20.4,145.3,21.7,148,24.3z"/>
	<path class="st0" d="M201.2,24.3c2.6,2.6,3.9,6.3,3.9,11.2v19.4c0,6.2,2,9.3,6.1,9.4v1.5h-22.5v-1.5c4-0.1,6.1-3.2,6.1-9.4V34.1
		c0-2.7-0.8-5-2.4-6.9c-1.6-2-3.7-2.9-6.4-2.9c-2.4,0-4.4,1-6.1,2.9c-1.6,1.9-2.4,4.2-2.4,6.9v20.9c0,6.2,2.1,9.3,6.2,9.4v1.5h-23
		v-1.5c4.1-0.1,6.2-3.2,6.2-9.4V31c0-5-2.1-7.2-6.2-6.5V23l15.5-2.5c0.8,0.8,1.2,2.7,1.4,5.9c3.4-4,7.7-5.9,13-5.9
		C194.9,20.4,198.5,21.7,201.2,24.3z"/>
	<path class="st0" d="M250.7,26.1c3.7,3.9,5.7,9.1,6,15.6h-31.8c-0.4,5.6,0.9,10.5,3.8,14.5c2.9,4,6.5,6,10.9,5.8
		c3.8-0.1,6.9-1.4,9.4-4c2.5-2.6,4.5-6,5.7-10.2h1.4c-1.2,5.9-3.7,10.5-7.6,13.8c-3.8,3.3-8.4,5-13.7,5c-5.9,0-10.9-2.2-15-6.6
		c-4-4.3-6.1-9.7-6.1-16.2c0-6.7,2-12.3,6.1-16.7c4.1-4.6,9.4-6.9,15.8-6.9C242.1,20.3,247.1,22.2,250.7,26.1z M230.7,24.2
		c-1.3,1.2-2.4,2.7-3.2,4.6c-0.8,1.8-1.3,3.6-1.7,5.5c-0.4,1.8-0.6,3.5-0.7,5.3h20.3c0.1-2.2-0.2-4.6-0.7-7.1
		c-0.5-2.5-1.6-4.9-3.3-7.1c-1.6-2.2-3.6-3.3-5.9-3.2C233.7,22.3,232.1,22.9,230.7,24.2z"/>
	<path class="st0" d="M325.7,1.8L348.6,57c1.9,4.5,5,6.8,9.2,6.9v1.9h-26.3v-1.9c5,0.1,6.5-2.2,4.7-6.9l-5-12.4h-22.6L303.8,57
		c-1.8,4.6-0.3,6.9,4.7,6.9v1.9h-16.2v-1.9c4.5,0.1,7.6-2.2,9.4-6.9l21-55.1H325.7z M309.3,42.7h21.1c-0.8-1.9-4.4-10.8-10.9-26.9
		C313.2,32.6,309.8,41.5,309.3,42.7z"/>
	<path class="st0" d="M401.1,24.3c2.6,2.6,3.9,6.3,3.9,11.2v19.4c0,6.2,2,9.3,6.1,9.4v1.5h-22.5v-1.5c4-0.1,6.1-3.2,6.1-9.4V34.1
		c0-2.7-0.8-5-2.4-6.9c-1.6-2-3.7-2.9-6.4-2.9c-2.4,0-4.4,1-6.1,2.9c-1.6,1.9-2.4,4.2-2.4,6.9v20.9c0,6.2,2.1,9.3,6.2,9.4v1.5h-23
		v-1.5c4.1-0.1,6.2-3.2,6.2-9.4V31c0-5-2.1-7.2-6.2-6.5V23l15.5-2.5c0.8,0.8,1.2,2.7,1.4,5.9c3.4-4,7.7-5.9,13-5.9
		C394.8,20.4,398.4,21.7,401.1,24.3z"/>
	<path class="st0" d="M454.3,24.3c2.6,2.6,3.9,6.3,3.9,11.2v19.4c0,6.2,2,9.3,6.1,9.4v1.5h-22.5v-1.5c4-0.1,6.1-3.2,6.1-9.4V34.1
		c0-2.7-0.8-5-2.4-6.9c-1.6-2-3.7-2.9-6.4-2.9c-2.4,0-4.4,1-6.1,2.9c-1.6,1.9-2.4,4.2-2.4,6.9v20.9c0,6.2,2.1,9.3,6.2,9.4v1.5h-23
		v-1.5c4.1-0.1,6.2-3.2,6.2-9.4V31c0-5-2.1-7.2-6.2-6.5V23l15.5-2.5c0.8,0.8,1.2,2.7,1.4,5.9c3.4-4,7.7-5.9,13-5.9
		C448,20.4,451.6,21.7,454.3,24.3z"/>
	<path class="st0" d="M503.8,26.1c3.7,3.9,5.7,9.1,6,15.6H478c-0.4,5.6,0.9,10.5,3.8,14.5c2.9,4,6.5,6,10.9,5.8
		c3.8-0.1,6.9-1.4,9.4-4c2.5-2.6,4.5-6,5.7-10.2h1.4c-1.2,5.9-3.7,10.5-7.6,13.8c-3.8,3.3-8.4,5-13.7,5c-5.9,0-10.9-2.2-15-6.6
		c-4-4.3-6.1-9.7-6.1-16.2c0-6.7,2-12.3,6.1-16.7c4.1-4.6,9.4-6.9,15.8-6.9C495.1,20.3,500.1,22.2,503.8,26.1z M483.7,24.2
		c-1.3,1.2-2.4,2.7-3.2,4.6c-0.8,1.8-1.3,3.6-1.7,5.5c-0.4,1.8-0.6,3.5-0.7,5.3h20.3c0.1-2.2-0.2-4.6-0.7-7.1
		c-0.5-2.5-1.6-4.9-3.3-7.1c-1.6-2.2-3.6-3.3-5.9-3.2C486.7,22.3,485.1,22.9,483.7,24.2z M490.1,1l-8.6,13.4l2.6,1.7l15.4-15H490.1z
		"/>
	<path class="st0" d="M549.3,26.1c3.7,3.9,5.7,9.1,6,15.6h-31.8c-0.4,5.6,0.9,10.5,3.8,14.5c2.9,4,6.5,6,10.9,5.8
		c3.8-0.1,6.9-1.4,9.4-4c2.5-2.6,4.5-6,5.7-10.2h1.4c-1.2,5.9-3.7,10.5-7.6,13.8c-3.8,3.3-8.4,5-13.7,5c-5.9,0-10.9-2.2-15-6.6
		c-4-4.3-6.1-9.7-6.1-16.2c0-6.7,2-12.3,6.1-16.7c4.1-4.6,9.4-6.9,15.8-6.9C540.7,20.3,545.7,22.2,549.3,26.1z M529.3,24.2
		c-1.3,1.2-2.4,2.7-3.2,4.6c-0.8,1.8-1.3,3.6-1.7,5.5c-0.4,1.8-0.6,3.5-0.7,5.3H544c0.1-2.2-0.2-4.6-0.7-7.1
		c-0.5-2.5-1.6-4.9-3.3-7.1c-1.6-2.2-3.6-3.3-5.9-3.2C532.3,22.3,530.7,22.9,529.3,24.2z"/>
</g>
</svg>
